<svg width="36" height="26" viewBox="0 0 36 26" fill="none" xmlns="http://www.w3.org/2000/svg">
<path d="M31.3334 1.33325H4.66671C2.82576 1.33325 1.33337 2.82564 1.33337 4.66659V21.3333C1.33337 23.1742 2.82576 24.6666 4.66671 24.6666H31.3334C33.1743 24.6666 34.6667 23.1742 34.6667 21.3333V4.66659C34.6667 2.82564 33.1743 1.33325 31.3334 1.33325Z" stroke="#151515" stroke-width="2.5" stroke-linecap="round" stroke-linejoin="bevel"/>
<path d="M3 3L16.0167 16.0167C16.3262 16.3266 16.6939 16.5725 17.0985 16.7402C17.5032 16.9079 17.9369 16.9943 18.375 16.9943C18.8131 16.9943 19.2468 16.9079 19.6515 16.7402C20.0561 16.5725 20.4238 16.3266 20.7333 16.0167L33.7 3" stroke="#151515" stroke-width="2.5" stroke-linecap="round" stroke-linejoin="round"/>
</svg>
